<svg width="41" height="41" viewBox="0 0 41 41" fill="none" xmlns="http://www.w3.org/2000/svg">
<path d="M13.8334 22.8643H27.1667M13.8334 14.531H20.5" stroke="#737373" stroke-width="2.5" stroke-linecap="round" stroke-linejoin="round"/>
<path d="M10.6647 32.031C8.49787 31.8178 6.87462 31.167 5.78599 30.0783C3.83337 28.1258 3.83337 24.983 3.83337 18.6977V17.8643C3.83337 11.5789 3.83337 8.43626 5.78599 6.48362C7.73862 4.53101 10.8813 4.53101 17.1667 4.53101H23.8334C30.1187 4.53101 33.2615 4.53101 35.214 6.48362C37.1667 8.43626 37.1667 11.5789 37.1667 17.8643V18.6977C37.1667 24.983 37.1667 28.1258 35.214 30.0783C33.2615 32.031 30.1187 32.031 23.8334 32.031C22.8992 32.0518 22.1552 32.1228 21.4244 32.2893C19.427 32.7492 17.5775 33.7712 15.7498 34.6625C13.1455 35.9323 11.8434 36.5673 11.0262 35.9728C9.46286 34.8085 10.9909 31.2008 11.3334 29.531" stroke="#737373" stroke-width="2.5" stroke-linecap="round"/>
</svg>
